<mxfile host="app.diagrams.net" modified="2021-04-27T14:54:42.992Z" agent="5.0 (Windows NT 10.0; Win64; x64) AppleWebKit/537.36 (KHTML, like Gecko) Chrome/90.0.4430.85 Safari/537.36" etag="_zNlhbT77lGrgqmJsObk" version="14.6.6" type="github">
  <diagram name="Page-1" id="97916047-d0de-89f5-080d-49f4d83e522f">
    <mxGraphModel dx="4150" dy="1228" grid="0" gridSize="10" guides="1" tooltips="1" connect="1" arrows="1" fold="1" page="1" pageScale="1.5" pageWidth="1100" pageHeight="1700" background="#ffffff" math="0" shadow="0">
      <root>
        <mxCell id="0" />
        <mxCell id="1" parent="0" />
        <mxCell id="WkDrt5I4f7olcOTcWhyi-60" style="edgeStyle=none;rounded=0;orthogonalLoop=1;jettySize=auto;html=1;exitX=0.5;exitY=1;exitDx=0;exitDy=0;fontSize=15;" edge="1" parent="1" source="2" target="WkDrt5I4f7olcOTcWhyi-59">
          <mxGeometry relative="1" as="geometry" />
        </mxCell>
        <mxCell id="2" value="Начало тестирования клиента" style="rounded=1;fillColor=#10739E;strokeColor=none;shadow=1;gradientColor=none;fontStyle=7;fontColor=#FFFFFF;fontSize=15;" parent="1" vertex="1">
          <mxGeometry x="672" y="205.5" width="268" height="74.5" as="geometry" />
        </mxCell>
        <mxCell id="WkDrt5I4f7olcOTcWhyi-57" value="" style="shape=curlyBracket;whiteSpace=wrap;html=1;rounded=1;fontSize=22;strokeWidth=4;fontStyle=1" vertex="1" parent="1">
          <mxGeometry x="-325" y="264" width="20" height="291" as="geometry" />
        </mxCell>
        <mxCell id="WkDrt5I4f7olcOTcWhyi-58" value="1-ая точка касания(обязательная)" style="text;html=1;strokeColor=none;fillColor=none;align=center;verticalAlign=middle;whiteSpace=wrap;rounded=0;fontSize=22;strokeWidth=2;fontStyle=1" vertex="1" parent="1">
          <mxGeometry x="-785" y="387" width="426" height="52" as="geometry" />
        </mxCell>
        <mxCell id="WkDrt5I4f7olcOTcWhyi-64" style="edgeStyle=elbowEdgeStyle;rounded=0;orthogonalLoop=1;jettySize=auto;html=1;exitX=0.5;exitY=1;exitDx=0;exitDy=0;fontSize=15;entryX=0.5;entryY=0;entryDx=0;entryDy=0;entryPerimeter=0;exitPerimeter=0;elbow=vertical;" edge="1" parent="1" source="WkDrt5I4f7olcOTcWhyi-59" target="WkDrt5I4f7olcOTcWhyi-62">
          <mxGeometry relative="1" as="geometry">
            <Array as="points">
              <mxPoint x="806" y="534" />
            </Array>
          </mxGeometry>
        </mxCell>
        <mxCell id="WkDrt5I4f7olcOTcWhyi-59" value="Сообщаем клиенту о запуске теста" style="rounded=1;fillColor=#10739E;strokeColor=none;shadow=1;gradientColor=none;fontStyle=1;fontColor=#FFFFFF;fontSize=15;" vertex="1" parent="1">
          <mxGeometry x="672" y="391.5" width="268" height="74.5" as="geometry" />
        </mxCell>
        <mxCell id="WkDrt5I4f7olcOTcWhyi-61" value="Тест проходит плохо &#xa;(CTR &lt; 0,5%)" style="rounded=1;fillColor=#10739E;strokeColor=none;shadow=1;gradientColor=none;fontStyle=1;fontColor=#FFFFFF;fontSize=15;" vertex="1" parent="1">
          <mxGeometry x="85" y="604" width="268" height="74.5" as="geometry" />
        </mxCell>
        <mxCell id="WkDrt5I4f7olcOTcWhyi-62" value="Тест проходит нормально&#xa;( 0,5% &gt; CTR &gt; 1% ) " style="rounded=1;fillColor=#10739E;strokeColor=none;shadow=1;gradientColor=none;fontStyle=1;fontColor=#FFFFFF;fontSize=15;" vertex="1" parent="1">
          <mxGeometry x="672" y="604" width="268" height="74.5" as="geometry" />
        </mxCell>
        <mxCell id="WkDrt5I4f7olcOTcWhyi-63" value="Тест проходит отлично&#xa;(CTR &gt; 1%)" style="rounded=1;fillColor=#10739E;strokeColor=none;shadow=1;gradientColor=none;fontStyle=1;fontColor=#FFFFFF;fontSize=15;" vertex="1" parent="1">
          <mxGeometry x="1136" y="604" width="268" height="74.5" as="geometry" />
        </mxCell>
        <mxCell id="WkDrt5I4f7olcOTcWhyi-65" value="В зависимости от того, как проходит тест" style="text;html=1;resizable=0;autosize=1;align=center;verticalAlign=middle;points=[];fillColor=none;strokeColor=none;rounded=0;fontSize=17;" vertex="1" parent="1">
          <mxGeometry x="-709" y="609" width="335" height="24" as="geometry" />
        </mxCell>
        <mxCell id="WkDrt5I4f7olcOTcWhyi-66" value="" style="shape=curlyBracket;whiteSpace=wrap;html=1;rounded=1;fontSize=15;fontStyle=1;strokeWidth=4;" vertex="1" parent="1">
          <mxGeometry x="-325" y="692" width="20" height="351" as="geometry" />
        </mxCell>
        <mxCell id="WkDrt5I4f7olcOTcWhyi-67" value="2-ая точка касания" style="text;html=1;strokeColor=none;fillColor=none;align=center;verticalAlign=middle;whiteSpace=wrap;rounded=0;fontSize=24;fontStyle=1" vertex="1" parent="1">
          <mxGeometry x="-620" y="841.5" width="261" height="52" as="geometry" />
        </mxCell>
        <mxCell id="WkDrt5I4f7olcOTcWhyi-68" value="&lt;div style=&quot;text-align: left&quot;&gt;&lt;span&gt;Отправляем письмо маркетологу &lt;/span&gt;&lt;span&gt;с текстом:&lt;/span&gt;&lt;/div&gt;&lt;div style=&quot;text-align: left&quot;&gt;&lt;span&gt;(нужно солгасовать)&lt;/span&gt;&lt;/div&gt;" style="text;html=1;resizable=0;autosize=1;align=center;verticalAlign=middle;points=[];fillColor=none;strokeColor=none;rounded=0;fontSize=17;" vertex="1" parent="1">
          <mxGeometry x="-291" y="260" width="357" height="44" as="geometry" />
        </mxCell>
      </root>
    </mxGraphModel>
  </diagram>
</mxfile>
